<?xml version="1.0" encoding="UTF-8"?>
<svg width="473px" height="86px" viewBox="0 0 473 86" version="1.1" xmlns="http://www.w3.org/2000/svg" xmlns:xlink="http://www.w3.org/1999/xlink">
    <!-- Generator: sketchtool 50.2 (55047) - http://www.bohemiancoding.com/sketch -->
    <title>E6C84C65-2F24-44ED-8E26-371D43F217F1</title>
    <desc>Created with sketchtool.</desc>
    <defs></defs>
    <g id="V2" stroke="none" stroke-width="1" fill="none" fill-rule="evenodd">
        <g id="pageweb-recrutement-roche" transform="translate(-319.000000, -122.000000)" fill="rgb(143,158,164)">
            <g id="Group-2" transform="translate(319.000000, 122.000000)">
                <g id="mono_white">
                    <g id="Calque_1">
                        <g id="Group">
                            <path d="M77.6381924,0.825299891 L71.4326531,0.825299891 C67.5714286,0.825299891 65.0892128,1.92569975 63.848105,3.98894947 L42.6113703,41.4025445 L21.6504373,4.12649945 C20.4093294,1.92569975 17.9271137,0.962849873 14.0658892,0.962849873 L7.86034985,0.962849873 C3.03381924,0.962849873 0.689504373,2.20079971 0.689504373,4.81424936 L0.689504373,81.0169393 C0.689504373,83.492839 3.03381924,84.8683388 7.86034985,84.8683388 L11.3078717,84.8683388 C16.1344023,84.8683388 18.4787172,83.6303889 18.4787172,81.0169393 L18.4787172,31.6364958 L18.8924198,31.4989458 L36.1300292,62.3101418 C37.2332362,63.8231916 38.8880466,64.5109415 40.9565598,64.5109415 L44.4040816,64.5109415 C46.4725948,64.5109415 48.1274052,63.8231916 49.2306122,62.3101418 L66.4682216,31.4989458 L66.8819242,31.6364958 L66.8819242,80.8793893 C66.8819242,83.355289 69.2262391,84.7307888 74.0527697,84.7307888 L77.5002915,84.7307888 C82.3268222,84.7307888 84.671137,83.492839 84.671137,80.8793893 L84.671137,4.67669938 C84.8090379,2.20079971 82.464723,0.825299891 77.6381924,0.825299891 Z" id="Shape"></path>
                            <path d="M227.122741,1.10039985 L170.721283,1.10039985 C168.376968,1.10039985 167.13586,3.0260996 167.13586,7.01504907 L167.13586,10.7288986 C167.13586,14.7178481 168.376968,16.6435478 170.721283,16.6435478 L189.751603,16.6435478 L189.751603,80.7418393 C189.751603,83.217739 192.095918,84.5932388 196.922449,84.5932388 L201.059475,84.5932388 C205.886006,84.5932388 208.230321,83.355289 208.230321,80.7418393 L208.230321,16.6435478 L227.260641,16.6435478 C229.604956,16.6435478 230.846064,14.7178481 230.846064,10.7288986 L230.846064,7.01504907 C230.708163,3.16364958 229.604956,1.10039985 227.122741,1.10039985 Z" id="Shape"></path>
                            <path d="M292.349854,53.7820429 C291.246647,51.3061432 290.005539,48.9677935 288.350729,46.7669938 C286.695918,44.7037441 285.179009,43.3282443 283.662099,42.7780443 L283.662099,42.3653944 C287.937026,40.7147946 291.384548,38.3764449 293.866764,35.0752454 C296.34898,31.7740458 297.590087,27.9226463 297.590087,23.5210469 C297.590087,8.66564885 287.661224,1.10039985 267.803499,1.10039985 L244.498251,1.10039985 C241.326531,1.10039985 239.67172,2.75099964 239.67172,5.91464922 L239.67172,80.8793893 C239.67172,83.355289 242.016035,84.7307888 246.842566,84.7307888 L250.841691,84.7307888 C255.668222,84.7307888 258.012536,83.492839 258.012536,80.8793893 L258.012536,51.8563431 L262.701166,51.8563431 C266.286589,51.8563431 268.906706,52.4065431 270.423615,53.5069429 C271.940525,54.6073428 273.457434,56.3954925 274.836443,59.0089422 L284.213703,82.2548891 C284.903207,83.9054889 287.109621,84.7307888 291.108746,84.7307888 L295.935277,84.7307888 C300.761808,84.7307888 303.106122,83.9054889 303.106122,82.3924391 C303.106122,81.9797892 302.968222,81.1544893 302.554519,80.1916394 L292.349854,53.7820429 Z M276.077551,33.0119956 C274.28484,34.9376954 272.078426,36.0380952 269.59621,36.0380952 L258.288338,36.0380952 L258.288338,16.7810978 L268.768805,16.7810978 C271.940525,16.7810978 274.28484,17.6063977 276.077551,19.2569975 C277.870262,20.9075972 278.697668,23.1083969 278.697668,25.8593966 C278.835569,28.6103962 277.870262,31.0862959 276.077551,33.0119956 Z" id="Shape"></path>
                            <path d="M323.377551,0.825299891 L319.240525,0.825299891 C314.413994,0.825299891 312.069679,2.20079971 312.069679,4.81424936 L312.069679,81.0169393 C312.069679,83.6303889 314.413994,85.0058888 319.240525,85.0058888 L323.377551,85.0058888 C328.204082,85.0058888 330.548397,83.6303889 330.548397,81.0169393 L330.548397,4.67669938 C330.548397,2.06324973 328.066181,0.825299891 323.377551,0.825299891 Z" id="Shape"></path>
                            <path d="M402.394752,65.0611414 C402.11895,65.0611414 401.015743,65.4737913 399.223032,66.2990912 C393.982799,68.6374409 388.466764,69.8753908 382.812828,69.8753908 C369.160641,69.8753908 362.403499,60.9346419 362.403499,42.9155943 C362.403499,24.8965467 369.298542,15.9557979 383.08863,15.9557979 C389.018367,15.9557979 393.982799,16.9186478 398.119825,18.8443475 C399.498834,19.5320974 400.326239,19.8071974 400.602041,19.8071974 C401.98105,19.8071974 403.63586,18.4316976 405.566472,15.5431479 C407.497085,12.6545983 408.32449,10.3162486 408.32449,8.66564885 C408.32449,6.32729916 405.566472,4.26404944 400.188338,2.75099964 C394.810204,1.10039985 389.156268,0.412649945 383.364431,0.412649945 C356.749563,0.412649945 343.511079,14.5802981 343.511079,42.7780443 C343.511079,57.4958924 346.682799,68.224791 353.16414,75.2398401 C359.50758,82.1173391 369.436443,85.6936387 382.812828,85.6936387 C388.742566,85.6936387 394.672303,84.8683388 400.602041,83.080189 C406.531778,81.2920393 409.427697,78.8161396 409.427697,75.65249 C409.427697,74.2769902 408.738192,72.0761905 407.221283,69.4627408 C405.566472,66.4366412 404.049563,65.0611414 402.394752,65.0611414 Z" id="Shape"></path>
                            <path d="M454.383382,16.6435478 L468.725073,16.6435478 C471.069388,16.6435478 472.310496,14.7178481 472.310496,10.7288986 L472.310496,7.01504907 C472.310496,3.0260996 471.069388,1.10039985 468.725073,1.10039985 L425.010496,1.10039985 C421.838776,1.10039985 420.183965,2.75099964 420.183965,5.91464922 L420.183965,16.7810978 L438.524781,16.7810978 L454.383382,16.7810978 L454.383382,16.6435478 Z" id="Shape"></path>
                            <path d="M448.453644,49.5179935 L465.415452,49.5179935 C467.759767,49.5179935 469.000875,47.5922937 469.000875,43.6033442 L469.000875,39.8894947 C469.000875,35.9005453 467.759767,33.9748455 465.415452,33.9748455 L420.183965,33.9748455 L420.183965,49.5179935 L438.524781,49.5179935 L448.453644,49.5179935 Z" id="Shape"></path>
                            <path d="M468.862974,68.9125409 L420.321866,68.9125409 L420.321866,79.7789895 C420.321866,82.942639 421.976676,84.5932388 425.148397,84.5932388 L468.862974,84.5932388 C471.207289,84.5932388 472.448397,82.6675391 472.448397,78.6785896 L472.448397,74.9647401 C472.448397,70.8382406 471.207289,68.9125409 468.862974,68.9125409 Z" id="Shape"></path>
                            <path d="M139.555685,3.43874955 C138.866181,1.78814976 136.659767,0.962849873 132.798542,0.962849873 L126.593003,0.962849873 C122.731778,0.962849873 120.387464,1.78814976 119.83586,3.43874955 L93.6346939,79.9165394 C93.3588921,81.0169393 93.2209913,81.7046892 93.2209913,82.1173391 C93.2209913,83.9054889 95.703207,84.7307888 100.529738,84.7307888 L105.356268,84.7307888 C108.527988,84.7307888 110.3207,83.9054889 110.872303,82.2548891 L115.698834,67.6745911 L120.801166,51.9938931 C120.801166,51.9938931 128.937318,26.9597964 129.626822,23.2459469 L130.040525,23.2459469 L138.590379,51.9938931 L143.692711,67.6745911 L148.519242,82.2548891 C149.070845,83.9054889 151.277259,84.7307888 155.138484,84.7307888 L160.378717,84.7307888 C164.377843,84.7307888 166.308455,83.9054889 166.308455,82.1173391 C166.308455,81.4295892 166.170554,80.7418393 165.894752,79.9165394 L139.555685,3.43874955 Z" id="Shape"></path>
                        </g>
                    </g>
                </g>
            </g>
        </g>
    </g>
</svg>